<svg width="24" height="24" viewBox="0 0 24 24" fill="none" xmlns="http://www.w3.org/2000/svg">
<path d="M19.3438 14.4907L18.3438 12.8307C18.1338 12.4607 17.9438 11.7607 17.9438 11.3507V8.82067C17.9438 6.47067 16.5638 4.44067 14.5738 3.49067C14.0538 2.57067 13.0938 2.00067 11.9938 2.00067C10.9038 2.00067 9.92385 2.59067 9.40385 3.52067C7.45385 4.49067 6.10385 6.50067 6.10385 8.82067V11.3507C6.10385 11.7607 5.91385 12.4607 5.70385 12.8207L4.69385 14.4907C4.29385 15.1607 4.20385 15.9007 4.45385 16.5807C4.69385 17.2507 5.26385 17.7707 6.00385 18.0207C7.94385 18.6807 9.98385 19.0007 12.0238 19.0007C14.0638 19.0007 16.1038 18.6807 18.0438 18.0307C18.7438 17.8007 19.2838 17.2707 19.5438 16.5807C19.8039 15.8907 19.7338 15.1307 19.3438 14.4907Z" fill="#64748B"/>
<path d="M14.834 20.0107C14.414 21.1707 13.304 22.0007 12.004 22.0007C11.214 22.0007 10.434 21.6807 9.88396 21.1107C9.56396 20.8107 9.32396 20.4107 9.18396 20.0007C9.31396 20.0207 9.44396 20.0307 9.58396 20.0507C9.81396 20.0807 10.054 20.1107 10.294 20.1307C10.864 20.1807 11.444 20.2107 12.024 20.2107C12.594 20.2107 13.164 20.1807 13.724 20.1307C13.934 20.1107 14.144 20.1007 14.344 20.0707C14.504 20.0507 14.664 20.0307 14.834 20.0107Z" fill="#64748B"/>
</svg>
